<svg data-name="Group 356" xmlns="http://www.w3.org/2000/svg" width="48.803" height="60.91" viewBox="0 0 48.803 60.91"><g data-name="Group 340"><path data-name="Path 208" d="M24.401 48.802a24.4 24.4 0 1 1 24.4-24.4 24.429 24.429 0 0 1-24.4 24.4zm0-47.185A22.784 22.784 0 1 0 47.185 24.4 22.81 22.81 0 0 0 24.401 1.617z" fill="#fff"/></g><g data-name="Group 347"><g data-name="Group 343"><g data-name="Group 341"><path data-name="Path 209" d="M34.717 60.91a.809.809 0 0 1-.7-.4l-7.116-12.329a.808.808 0 0 1 1.4-.809l6.3 10.9 2.232-5.388-3.72-6.444a.808.808 0 1 1 1.4-.809l3.92 6.79a.81.81 0 0 1 .047.714l-3.011 7.27a.809.809 0 0 1-.694.5z" fill="#fff"/></g><g data-name="Group 342"><path data-name="Path 210" d="M45.531 54.666a.778.778 0 0 1-.106-.007l-7.8-1.027a.808.808 0 0 1-.6-.4l-3.92-6.79a.808.808 0 1 1 1.4-.809l3.721 6.444 5.781.761-5.557-9.626a.808.808 0 0 1 1.4-.809l6.378 11.046a.808.808 0 0 1-.7 1.213z" fill="#fff"/></g></g><g data-name="Group 346"><g data-name="Group 344"><path data-name="Path 211" d="M14.083 60.91h-.053a.808.808 0 0 1-.694-.5l-3.011-7.27a.807.807 0 0 1 .047-.714l3.92-6.79a.808.808 0 1 1 1.4.809l-3.72 6.444 2.23 5.392 6.3-10.9a.809.809 0 0 1 1.4.809l-7.116 12.324a.809.809 0 0 1-.703.396z" fill="#fff"/></g><g data-name="Group 345"><path data-name="Path 212" d="M3.27 54.666a.808.808 0 0 1-.7-1.213l6.378-11.046a.809.809 0 0 1 1.4.809L4.79 52.842l5.782-.761 3.721-6.444a.808.808 0 1 1 1.4.809l-3.92 6.79a.81.81 0 0 1-.6.4l-7.8 1.027a.766.766 0 0 1-.103.003z" fill="#fff"/></g></g></g><g data-name="Group 348"><path data-name="Path 213" d="M24.4 44.375a19.971 19.971 0 1 1 19.971-19.971A19.993 19.993 0 0 1 24.4 44.375zm0-38.324a18.353 18.353 0 1 0 18.354 18.353A18.374 18.374 0 0 0 24.4 6.047z" fill="#fff"/></g><g data-name="Group 385"><g data-name="Group 351"><g data-name="Group 349"><path data-name="Path 214" d="M18.295 47.998a.81.81 0 0 1-.781-1.018l1.147-4.279a.809.809 0 0 1 1.562.419l-1.146 4.279a.81.81 0 0 1-.782.599z" fill="#fff"/></g><g data-name="Group 350"><path data-name="Path 215" d="M29.362 6.701a.811.811 0 0 1-.782-1.018l1.146-4.279a.81.81 0 0 1 1.563.419l-1.147 4.279a.81.81 0 0 1-.78.599z" fill="#fff"/></g></g><g data-name="Group 354"><g data-name="Group 352"><path data-name="Path 216" d="M12.604 45.641a.809.809 0 0 1-.7-1.213l2.215-3.832a.809.809 0 0 1 1.4.809l-2.215 3.836a.807.807 0 0 1-.7.4z" fill="#fff"/></g><g data-name="Group 353"><path data-name="Path 217" d="M33.981 8.615a.809.809 0 0 1-.7-1.213l2.215-3.837a.808.808 0 1 1 1.4.809l-2.215 3.837a.81.81 0 0 1-.7.404z" fill="#fff"/></g></g><g data-name="Group 357"><g data-name="Group 355"><path data-name="Path 218" d="M7.715 41.891a.809.809 0 0 1-.571-1.38l3.132-3.132a.808.808 0 0 1 1.143 1.143l-3.132 3.133a.808.808 0 0 1-.572.236z" fill="#fff"/></g><g data-name="Group 356"><path data-name="Path 219" d="M37.95 11.66a.809.809 0 0 1-.572-1.38l3.132-3.132a.808.808 0 0 1 1.143 1.143l-3.132 3.132a.807.807 0 0 1-.571.237z" fill="#fff"/></g></g><g data-name="Group 360"><g data-name="Group 358"><path data-name="Path 220" d="M3.97 37.005a.809.809 0 0 1-.4-1.509l3.836-2.215a.808.808 0 1 1 .808 1.4l-3.836 2.215a.8.8 0 0 1-.408.109z" fill="#fff"/></g><g data-name="Group 359"><path data-name="Path 221" d="M40.997 15.628a.809.809 0 0 1-.4-1.509l3.837-2.215a.808.808 0 1 1 .809 1.4l-3.837 2.215a.806.806 0 0 1-.409.109z" fill="#fff"/></g></g><g data-name="Group 363"><g data-name="Group 361"><path data-name="Path 222" d="M1.612 31.316a.809.809 0 0 1-.209-1.59l4.279-1.146a.809.809 0 1 1 .419 1.562l-4.279 1.147a.811.811 0 0 1-.21.027z" fill="#fff"/></g><g data-name="Group 362"><path data-name="Path 223" d="M42.909 20.251a.809.809 0 0 1-.209-1.59l4.279-1.147a.809.809 0 1 1 .419 1.562l-4.278 1.147a.811.811 0 0 1-.211.028z" fill="#fff"/></g></g><g data-name="Group 366"><g data-name="Group 364"><path data-name="Path 224" d="M5.239 25.209H.809a.809.809 0 0 1 0-1.617h4.43a.809.809 0 0 1 0 1.617z" fill="#fff"/></g><g data-name="Group 365"><path data-name="Path 225" d="M47.993 25.209h-4.432a.809.809 0 1 1 0-1.617h4.43a.809.809 0 0 1 0 1.617z" fill="#fff"/></g></g><g data-name="Group 369"><g data-name="Group 367"><path data-name="Path 226" d="M5.892 20.25a.811.811 0 0 1-.21-.028l-4.279-1.146a.809.809 0 0 1 .419-1.562l4.279 1.147a.809.809 0 0 1-.209 1.59z" fill="#fff"/></g><g data-name="Group 368"><path data-name="Path 227" d="M47.189 31.315a.812.812 0 0 1-.21-.028L42.7 30.14a.809.809 0 1 1 .419-1.562l4.279 1.147a.809.809 0 0 1-.209 1.59z" fill="#fff"/></g></g><g data-name="Group 372"><g data-name="Group 370"><path data-name="Path 228" d="M7.805 15.628a.807.807 0 0 1-.4-.108l-3.836-2.215a.808.808 0 1 1 .809-1.4l3.836 2.215a.808.808 0 0 1-.4 1.509z" fill="#fff"/></g><g data-name="Group 371"><path data-name="Path 229" d="M44.832 37.005a.8.8 0 0 1-.4-.109l-3.837-2.215a.808.808 0 0 1 .808-1.4l3.837 2.215a.809.809 0 0 1-.4 1.509z" fill="#fff"/></g></g><g data-name="Group 375"><g data-name="Group 373"><path data-name="Path 230" d="M10.851 11.66a.806.806 0 0 1-.572-.237L7.147 8.291A.808.808 0 0 1 8.29 7.148l3.132 3.132a.809.809 0 0 1-.572 1.38z" fill="#fff"/></g><g data-name="Group 374"><path data-name="Path 231" d="M41.083 41.891a.808.808 0 0 1-.572-.237l-3.132-3.133a.808.808 0 0 1 1.143-1.143l3.132 3.132a.809.809 0 0 1-.571 1.38z" fill="#fff"/></g></g><g data-name="Group 378"><g data-name="Group 376"><path data-name="Path 232" d="M14.82 8.615a.808.808 0 0 1-.7-.4l-2.215-3.837a.808.808 0 1 1 1.4-.809l2.215 3.837a.809.809 0 0 1-.7 1.213z" fill="#fff"/></g><g data-name="Group 377"><path data-name="Path 233" d="M36.197 45.641a.808.808 0 0 1-.7-.4l-2.215-3.836a.809.809 0 0 1 1.4-.809l2.215 3.836a.809.809 0 0 1-.7 1.213z" fill="#fff"/></g></g><g data-name="Group 381"><g data-name="Group 379"><path data-name="Path 234" d="M19.441 6.701a.809.809 0 0 1-.78-.6l-1.147-4.279a.81.81 0 0 1 1.563-.419l1.146 4.279a.81.81 0 0 1-.781 1.018z" fill="#fff"/></g><g data-name="Group 380"><path data-name="Path 235" d="M30.508 47.998a.81.81 0 0 1-.781-.6l-1.146-4.279a.81.81 0 0 1 1.563-.419l1.147 4.279a.81.81 0 0 1-.782 1.018z" fill="#fff"/></g></g><g data-name="Group 384"><g data-name="Group 382"><path data-name="Path 236" d="M24.401 6.047a.809.809 0 0 1-.808-.809V.808a.809.809 0 0 1 1.617 0v4.43a.809.809 0 0 1-.809.809z" fill="#fff"/></g><g data-name="Group 383"><path data-name="Path 237" d="M24.401 48.8a.809.809 0 0 1-.808-.809v-4.43a.809.809 0 0 1 1.617 0v4.43a.809.809 0 0 1-.809.809z" fill="#fff"/></g></g></g><g data-name="Group 386" fill="#fff"><path data-name="Path 238" d="M28.774 23.503a.347.347 0 0 0-.2-.627l-2.685.007a.347.347 0 0 1-.331-.24l-.823-2.556a.347.347 0 0 0-.659 0l-.823 2.556a.347.347 0 0 1-.331.24l-2.685-.007a.346.346 0 0 0-.2.627l2.177 1.572a.346.346 0 0 1 .126.389l-.836 2.552a.346.346 0 0 0 .533.388l2.168-1.584a.347.347 0 0 1 .409 0l2.168 1.584a.346.346 0 0 0 .534-.388l-.837-2.552a.347.347 0 0 1 .127-.389z"/><path data-name="Path 239" d="M21.824 29.009a.886.886 0 0 1-.841-1.162l.792-2.418-2.063-1.49a.886.886 0 0 1 .518-1.6l2.544.006.78-2.422a.885.885 0 0 1 1.685 0l.78 2.422 2.545-.006a.885.885 0 0 1 .518 1.6l-2.063 1.49.792 2.418a.885.885 0 0 1-1.364.991l-2.055-1.5-2.055 1.5a.883.883 0 0 1-.513.171zm4.971-.826zm-2.394-1.971a.884.884 0 0 1 .523.171l1.685 1.231-.65-1.984a.884.884 0 0 1 .322-.993l1.692-1.223-2.086.005a.883.883 0 0 1-.842-.614l-.64-1.987-.639 1.987a.847.847 0 0 1-.846.614l-2.087-.005 1.692 1.223a.884.884 0 0 1 .323.993l-.65 1.984 1.686-1.232a.879.879 0 0 1 .517-.169zm4.058-3.147z"/></g><g data-name="Group 387"><path data-name="Path 240" d="M23.703 40.289a.808.808 0 0 1-.77-.846.8.8 0 0 1 .841-.771.812.812 0 0 1 .776.841.812.812 0 0 1-.809.776h-.038zm1.936-.825a.815.815 0 0 1 .7-.911.813.813 0 0 1 .911.7.812.812 0 0 1-.7.911.733.733 0 0 1-.108.005.816.816 0 0 1-.804-.704zm-4.754.447h-.005a.814.814 0 0 1-.609-.97.817.817 0 0 1 .97-.609h-.006a.814.814 0 0 1 .615.97.815.815 0 0 1-.787.631 1 1 0 0 1-.179-.021zm7.422-.906a.81.81 0 0 1 .523-1.019.808.808 0 0 1 1.019.517.814.814 0 0 1-.517 1.019.851.851 0 0 1-.253.038.813.813 0 0 1-.77-.554zm-10.139.027a.806.806 0 0 1-.426-1.062.812.812 0 0 1 1.062-.426.814.814 0 0 1 .426 1.062.808.808 0 0 1-.744.49.815.815 0 0 1-.319-.063zm12.683-.959a.808.808 0 0 1 .329-1.094.806.806 0 0 1 1.094.323.816.816 0 0 1-.329 1.1.808.808 0 0 1-.383.1.812.812 0 0 1-.712-.428zm-15.195-.388a.808.808 0 0 1-.226-1.121.8.8 0 0 1 1.116-.226h.005a.8.8 0 0 1 .226 1.116.8.8 0 0 1-.674.367.816.816 0 0 1-.447-.135zm17.529-.986a.8.8 0 0 1 .129-1.132.8.8 0 0 1 1.133.124.807.807 0 0 1-.124 1.137.819.819 0 0 1-.507.178.812.812 0 0 1-.631-.307zm-19.755-.787a.8.8 0 0 1-.027-1.143.8.8 0 0 1 1.143-.027.809.809 0 0 1 .027 1.143.808.808 0 0 1-.588.248.815.815 0 0 1-.556-.221zm21.809-.976a.81.81 0 0 1-.075-1.143.8.8 0 0 1 1.137-.075.8.8 0 0 1 .081 1.137.818.818 0 0 1-.609.28.812.812 0 0 1-.535-.198zm-23.69-1.17v.005a.81.81 0 0 1 .178-1.132.81.81 0 0 1 1.132.178.809.809 0 0 1-.178 1.127.794.794 0 0 1-.475.156.8.8 0 0 1-.658-.333zm25.4-.933a.814.814 0 0 1-.28-1.11.814.814 0 0 1 1.11-.28.808.808 0 0 1 .275 1.11.8.8 0 0 1-.69.393.815.815 0 0 1-.417-.111zm-26.865-1.509a.806.806 0 0 1 .377-1.078.806.806 0 0 1 1.078.377.806.806 0 0 1-.377 1.078.812.812 0 0 1-.351.081.809.809 0 0 1-.729-.457zm28.169-.868a.805.805 0 0 1-.474-1.04.808.808 0 0 1 1.04-.474.808.808 0 0 1 .474 1.04.8.8 0 0 1-.754.528.748.748 0 0 1-.288-.053zM9.076 28.661a.811.811 0 0 1 .566-1 .805.805 0 0 1 .991.566.8.8 0 0 1-.56.992.744.744 0 0 1-.215.032.816.816 0 0 1-.784-.589zm30.034-.771a.811.811 0 0 1-.652-.938.806.806 0 0 1 .938-.652.808.808 0 0 1 .657.938.808.808 0 0 1-.792.663 1.323 1.323 0 0 1-.152-.009zM8.567 25.86a.8.8 0 0 1 .728-.879.8.8 0 0 1 .879.733.8.8 0 0 1-.733.873.311.311 0 0 1-.07.005.8.8 0 0 1-.804-.732zm30.116-1.455v-.065a.807.807 0 0 1 .809-.809.8.8 0 0 1 .808.8v.07a.806.806 0 0 1-.808.8.806.806 0 0 1-.809-.797zm0-.065zm-29.387-.453a.808.808 0 0 1-.739-.873.814.814 0 0 1 .879-.738.809.809 0 0 1 .733.873v.005a.805.805 0 0 1-.8.738c-.026 0-.052-.005-.074-.005zm29.15-2.1a.807.807 0 0 1 .652-.938.807.807 0 0 1 .938.647.812.812 0 0 1-.647.943.668.668 0 0 1-.146.011.812.812 0 0 1-.798-.66zm-28.822-.593a.806.806 0 0 1-.567-.992.806.806 0 0 1 .992-.566.806.806 0 0 1 .567.992.8.8 0 0 1-.776.6.774.774 0 0 1-.216-.031zm28.132-1.87a.809.809 0 0 1 .469-1.04.807.807 0 0 1 1.046.469.81.81 0 0 1-.469 1.04.789.789 0 0 1-.286.054.813.813 0 0 1-.761-.52zm-27.323-.712a.815.815 0 0 1-.377-1.083.809.809 0 0 1 1.078-.377.811.811 0 0 1 .377 1.078.8.8 0 0 1-.728.458.8.8 0 0 1-.351-.073zm26.206-1.582a.812.812 0 0 1 .269-1.11.809.809 0 0 1 1.111.275.8.8 0 0 1-.275 1.11.829.829 0 0 1-.415.113.808.808 0 0 1-.69-.388zm-24.945-.814a.816.816 0 0 1-.185-1.136.81.81 0 0 1 1.132-.178.8.8 0 0 1 .178 1.127.8.8 0 0 1-.652.334.8.8 0 0 1-.473-.147zm23.431-1.251a.81.81 0 0 1 .07-1.143.81.81 0 0 1 1.143.07.816.816 0 0 1-.075 1.143.8.8 0 0 1-.534.2.807.807 0 0 1-.604-.269zm-21.766-.885a.815.815 0 0 1 .022-1.148.809.809 0 0 1 1.143.027.8.8 0 0 1-.022 1.143.8.8 0 0 1-.561.221.811.811 0 0 1-.582-.243zm19.906-.879a.808.808 0 0 1-.13-1.137.813.813 0 0 1 1.138-.135h-.005a.813.813 0 0 1 .135 1.137.806.806 0 0 1-.637.307.842.842 0 0 1-.501-.17zm-17.89-.927a.813.813 0 0 1 .226-1.121.807.807 0 0 1 1.121.221.811.811 0 0 1-.221 1.121.829.829 0 0 1-.453.14.832.832 0 0 1-.673-.355zm15.75-.48a.8.8 0 0 1-.329-1.094.808.808 0 0 1 1.094-.334.813.813 0 0 1 .329 1.094.807.807 0 0 1-.711.431.822.822 0 0 1-.382-.095zm-13.444-.938a.821.821 0 0 1 .426-1.067.814.814 0 0 1 1.062.426.807.807 0 0 1-.42 1.062.866.866 0 0 1-.324.065.817.817 0 0 1-.743-.483zm11.088-.059a.808.808 0 0 1-.523-1.019.81.81 0 0 1 1.019-.523.815.815 0 0 1 .523 1.019.819.819 0 0 1-.771.561.788.788 0 0 1-.247-.036zm-8.56-.917a.806.806 0 0 1 .6-.97.8.8 0 0 1 .97.6.807.807 0 0 1-.6.97.737.737 0 0 1-.183.022.811.811 0 0 1-.787-.622zm6.064.361a.807.807 0 0 1-.7-.906.8.8 0 0 1 .906-.7.8.8 0 0 1 .7.906.809.809 0 0 1-.8.7.643.643 0 0 1-.105-.002zm-3.407-.873a.808.808 0 0 1 .771-.846.809.809 0 0 1 .846.771.807.807 0 0 1-.771.841h-.038a.806.806 0 0 1-.806-.769z" fill="#fff"/></g><g data-name="Group 388"><path data-name="Path 241" d="M24.401 33.474a9.074 9.074 0 1 1 9.074-9.074 9.084 9.084 0 0 1-9.074 9.074zm0-16.53a7.457 7.457 0 1 0 7.457 7.456 7.465 7.465 0 0 0-7.457-7.456z" fill="#fff"/></g></svg>